<?xml version="1.0" standalone="no"?>
<svg xmlns:xlink="http://www.w3.org/1999/xlink" id="wave" style="transform:rotate(180deg); transition: 0.3s" viewBox="0 0 1440 280" version="1.1" xmlns="http://www.w3.org/2000/svg"><defs><linearGradient id="sw-gradient-0" x1="0" x2="0" y1="1" y2="0"><stop stop-color="rgba(247, 247, 247, 1)" offset="0%"/><stop stop-color="rgba(247, 247, 247, 1)" offset="100%"/></linearGradient></defs><path style="transform:translate(0, 0px); opacity:1" fill="url(#sw-gradient-0)" d="M0,140L10.9,154C21.8,168,44,196,65,191.3C87.3,187,109,149,131,140C152.7,131,175,149,196,172.7C218.2,196,240,224,262,224C283.6,224,305,196,327,158.7C349.1,121,371,75,393,60.7C414.5,47,436,65,458,84C480,103,502,121,524,107.3C545.5,93,567,47,589,23.3C610.9,0,633,0,655,18.7C676.4,37,698,75,720,88.7C741.8,103,764,93,785,79.3C807.3,65,829,47,851,56C872.7,65,895,103,916,102.7C938.2,103,960,65,982,60.7C1003.6,56,1025,84,1047,84C1069.1,84,1091,56,1113,42C1134.5,28,1156,28,1178,28C1200,28,1222,28,1244,37.3C1265.5,47,1287,65,1309,98C1330.9,131,1353,177,1375,196C1396.4,215,1418,205,1440,196C1461.8,187,1484,177,1505,154C1527.3,131,1549,93,1560,74.7L1570.9,56L1570.9,280L1560,280C1549.1,280,1527,280,1505,280C1483.6,280,1462,280,1440,280C1418.2,280,1396,280,1375,280C1352.7,280,1331,280,1309,280C1287.3,280,1265,280,1244,280C1221.8,280,1200,280,1178,280C1156.4,280,1135,280,1113,280C1090.9,280,1069,280,1047,280C1025.5,280,1004,280,982,280C960,280,938,280,916,280C894.5,280,873,280,851,280C829.1,280,807,280,785,280C763.6,280,742,280,720,280C698.2,280,676,280,655,280C632.7,280,611,280,589,280C567.3,280,545,280,524,280C501.8,280,480,280,458,280C436.4,280,415,280,393,280C370.9,280,349,280,327,280C305.5,280,284,280,262,280C240,280,218,280,196,280C174.5,280,153,280,131,280C109.1,280,87,280,65,280C43.6,280,22,280,11,280L0,280Z"/></svg>