<?xml version="1.0" standalone="no"?>
<svg xmlns:xlink="http://www.w3.org/1999/xlink" id="wave" style="transform:rotate(0deg); transition: 0.3s" viewBox="0 0 1440 490" version="1.1" xmlns="http://www.w3.org/2000/svg"><defs><linearGradient id="sw-gradient-0" x1="0" x2="0" y1="1" y2="0"><stop stop-color="rgba(0, 204, 255, 1)" offset="0%"/><stop stop-color="rgba(1, 113, 189, 1)" offset="100%"/></linearGradient></defs><path style="transform:translate(0, 0px); opacity:1" fill="url(#sw-gradient-0)" d="M0,245L60,204.2C120,163,240,82,360,106.2C480,131,600,261,720,277.7C840,294,960,196,1080,187.8C1200,180,1320,261,1440,261.3C1560,261,1680,180,1800,147C1920,114,2040,131,2160,187.8C2280,245,2400,343,2520,326.7C2640,310,2760,180,2880,171.5C3000,163,3120,278,3240,343C3360,408,3480,425,3600,432.8C3720,441,3840,441,3960,367.5C4080,294,4200,147,4320,81.7C4440,16,4560,33,4680,89.8C4800,147,4920,245,5040,269.5C5160,294,5280,245,5400,204.2C5520,163,5640,131,5760,106.2C5880,82,6000,65,6120,122.5C6240,180,6360,310,6480,343C6600,376,6720,310,6840,294C6960,278,7080,310,7200,277.7C7320,245,7440,147,7560,130.7C7680,114,7800,180,7920,212.3C8040,245,8160,245,8280,212.3C8400,180,8520,114,8580,81.7L8640,49L8640,490L8580,490C8520,490,8400,490,8280,490C8160,490,8040,490,7920,490C7800,490,7680,490,7560,490C7440,490,7320,490,7200,490C7080,490,6960,490,6840,490C6720,490,6600,490,6480,490C6360,490,6240,490,6120,490C6000,490,5880,490,5760,490C5640,490,5520,490,5400,490C5280,490,5160,490,5040,490C4920,490,4800,490,4680,490C4560,490,4440,490,4320,490C4200,490,4080,490,3960,490C3840,490,3720,490,3600,490C3480,490,3360,490,3240,490C3120,490,3000,490,2880,490C2760,490,2640,490,2520,490C2400,490,2280,490,2160,490C2040,490,1920,490,1800,490C1680,490,1560,490,1440,490C1320,490,1200,490,1080,490C960,490,840,490,720,490C600,490,480,490,360,490C240,490,120,490,60,490L0,490Z"/></svg>