<?xml version="1.0" standalone="no"?>
<svg xmlns:xlink="http://www.w3.org/1999/xlink" id="wave" style="transform:rotate(180deg); transition: 0.3s" viewBox="0 0 1440 490" version="1.1" xmlns="http://www.w3.org/2000/svg"><defs><linearGradient id="sw-gradient-0" x1="0" x2="0" y1="1" y2="0"><stop stop-color="rgba(255, 255, 255, 0.21)" offset="0%"/><stop stop-color="rgba(0.427, 0.372, 0.25, 0)" offset="100%"/></linearGradient></defs><path style="transform:translate(0, 0px); opacity:1" fill="url(#sw-gradient-0)" d="M0,245L12,261.3C24,278,48,310,72,277.7C96,245,120,147,144,155.2C168,163,192,278,216,302.2C240,327,264,261,288,220.5C312,180,336,163,360,196C384,229,408,310,432,318.5C456,327,480,261,504,245C528,229,552,261,576,294C600,327,624,359,648,367.5C672,376,696,359,720,294C744,229,768,114,792,81.7C816,49,840,98,864,122.5C888,147,912,147,936,196C960,245,984,343,1008,392C1032,441,1056,441,1080,441C1104,441,1128,441,1152,416.5C1176,392,1200,343,1224,269.5C1248,196,1272,98,1296,114.3C1320,131,1344,261,1368,277.7C1392,294,1416,196,1440,171.5C1464,147,1488,196,1512,179.7C1536,163,1560,82,1584,98C1608,114,1632,229,1656,253.2C1680,278,1704,212,1716,179.7L1728,147L1728,490L1716,490C1704,490,1680,490,1656,490C1632,490,1608,490,1584,490C1560,490,1536,490,1512,490C1488,490,1464,490,1440,490C1416,490,1392,490,1368,490C1344,490,1320,490,1296,490C1272,490,1248,490,1224,490C1200,490,1176,490,1152,490C1128,490,1104,490,1080,490C1056,490,1032,490,1008,490C984,490,960,490,936,490C912,490,888,490,864,490C840,490,816,490,792,490C768,490,744,490,720,490C696,490,672,490,648,490C624,490,600,490,576,490C552,490,528,490,504,490C480,490,456,490,432,490C408,490,384,490,360,490C336,490,312,490,288,490C264,490,240,490,216,490C192,490,168,490,144,490C120,490,96,490,72,490C48,490,24,490,12,490L0,490Z"/></svg>