<?xml version="1.0" standalone="no"?>
<svg xmlns:xlink="http://www.w3.org/1999/xlink" id="wave" style="transform:rotate(180deg); transition: 0.3s" viewBox="0 0 1440 350" version="1.1" xmlns="http://www.w3.org/2000/svg"><defs><linearGradient id="sw-gradient-0" x1="0" x2="0" y1="1" y2="0"><stop stop-color="rgba(247, 247, 247, 1)" offset="0%"/><stop stop-color="rgba(247, 247, 247, 1)" offset="100%"/></linearGradient></defs><path style="transform:translate(0, 0px); opacity:1" fill="url(#sw-gradient-0)" d="M0,210L18.5,175C36.9,140,74,70,111,81.7C147.7,93,185,187,222,215.8C258.5,245,295,210,332,175C369.2,140,406,105,443,122.5C480,140,517,210,554,198.3C590.8,187,628,93,665,75.8C701.5,58,738,117,775,128.3C812.3,140,849,105,886,87.5C923.1,70,960,70,997,93.3C1033.8,117,1071,163,1108,175C1144.6,187,1182,163,1218,134.2C1255.4,105,1292,70,1329,99.2C1366.2,128,1403,222,1440,221.7C1476.9,222,1514,128,1551,116.7C1587.7,105,1625,175,1662,215.8C1698.5,257,1735,268,1772,250.8C1809.2,233,1846,187,1883,145.8C1920,105,1957,70,1994,99.2C2030.8,128,2068,222,2105,268.3C2141.5,315,2178,315,2215,297.5C2252.3,280,2289,245,2326,245C2363.1,245,2400,280,2437,291.7C2473.8,303,2511,292,2548,291.7C2584.6,292,2622,303,2640,309.2L2658.5,315L2658.5,350L2640,350C2621.5,350,2585,350,2548,350C2510.8,350,2474,350,2437,350C2400,350,2363,350,2326,350C2289.2,350,2252,350,2215,350C2178.5,350,2142,350,2105,350C2067.7,350,2031,350,1994,350C1956.9,350,1920,350,1883,350C1846.2,350,1809,350,1772,350C1735.4,350,1698,350,1662,350C1624.6,350,1588,350,1551,350C1513.8,350,1477,350,1440,350C1403.1,350,1366,350,1329,350C1292.3,350,1255,350,1218,350C1181.5,350,1145,350,1108,350C1070.8,350,1034,350,997,350C960,350,923,350,886,350C849.2,350,812,350,775,350C738.5,350,702,350,665,350C627.7,350,591,350,554,350C516.9,350,480,350,443,350C406.2,350,369,350,332,350C295.4,350,258,350,222,350C184.6,350,148,350,111,350C73.8,350,37,350,18,350L0,350Z"/></svg>