<?xml version="1.0" standalone="no"?>
<svg xmlns:xlink="http://www.w3.org/1999/xlink" id="wave" style="transform:rotate(180deg); transition: 0.3s" viewBox="0 0 1440 490" version="1.1" xmlns="http://www.w3.org/2000/svg"><defs><linearGradient id="sw-gradient-0" x1="0" x2="0" y1="1" y2="0"><stop stop-color="rgba(247, 247, 247, 1)" offset="0%"/><stop stop-color="rgba(247, 247, 247, 1)" offset="100%"/></linearGradient></defs><path style="transform:translate(0, 0px); opacity:1" fill="url(#sw-gradient-0)" d="M0,245L10.9,269.5C21.8,294,44,343,65,334.8C87.3,327,109,261,131,245C152.7,229,175,261,196,302.2C218.2,343,240,392,262,392C283.6,392,305,343,327,277.7C349.1,212,371,131,393,106.2C414.5,82,436,114,458,147C480,180,502,212,524,187.8C545.5,163,567,82,589,40.8C610.9,0,633,0,655,32.7C676.4,65,698,131,720,155.2C741.8,180,764,163,785,138.8C807.3,114,829,82,851,98C872.7,114,895,180,916,179.7C938.2,180,960,114,982,106.2C1003.6,98,1025,147,1047,147C1069.1,147,1091,98,1113,73.5C1134.5,49,1156,49,1178,49C1200,49,1222,49,1244,65.3C1265.5,82,1287,114,1309,171.5C1330.9,229,1353,310,1375,343C1396.4,376,1418,359,1440,343C1461.8,327,1484,310,1505,269.5C1527.3,229,1549,163,1560,130.7L1570.9,98L1570.9,490L1560,490C1549.1,490,1527,490,1505,490C1483.6,490,1462,490,1440,490C1418.2,490,1396,490,1375,490C1352.7,490,1331,490,1309,490C1287.3,490,1265,490,1244,490C1221.8,490,1200,490,1178,490C1156.4,490,1135,490,1113,490C1090.9,490,1069,490,1047,490C1025.5,490,1004,490,982,490C960,490,938,490,916,490C894.5,490,873,490,851,490C829.1,490,807,490,785,490C763.6,490,742,490,720,490C698.2,490,676,490,655,490C632.7,490,611,490,589,490C567.3,490,545,490,524,490C501.8,490,480,490,458,490C436.4,490,415,490,393,490C370.9,490,349,490,327,490C305.5,490,284,490,262,490C240,490,218,490,196,490C174.5,490,153,490,131,490C109.1,490,87,490,65,490C43.6,490,22,490,11,490L0,490Z"/></svg>